# xmcd
#
# Track frame offsets:
# 150
# 13940
# 29962
# 43265
# 56660
# 68807
# 79452
# 92112
# 106837
# 118920
# 127925
# 138755
# 152747
# 167927
#
# Disc length: 2408 seconds
#
#
# Revision: 0
# Processed by: cddbd v1.4PL0 Copyright (c) Steve Scherf et al.
# Submitted via: FreeRIP 2.52 
#
DISCID=c909660e
DTITLE=Trio Parada Dura - Trio Parada Dura - Disco 2
DYEAR=1900
DGENRE=Country
TTITLE0=Fuscão Preto
TTITLE1=O Carro e a Faculdade
TTITLE2=Bobeou... A Gente Pimba
TTITLE3=O Doutor e a Empregada
TTITLE4=Cruz Pesada
TTITLE5=Homem de Pedra
TTITLE6=Beco Sem Saída
TTITLE7=Telefone Mudo
TTITLE8=Avião das Nove
TTITLE9=Casa da Avenida
TTITLE10=Um Milhão de Lágrimas
TTITLE11=Camisola Preta
TTITLE12=Blusa Vermelha
TTITLE13=Espinho na Cama
EXTD=
EXTT0=
EXTT1=
EXTT2=
EXTT3=
EXTT4=
EXTT5=
EXTT6=
EXTT7=
EXTT8=
EXTT9=
EXTT10=
EXTT11=
EXTT12=
EXTT13=
PLAYORDER=
